<svg xmlns="http://www.w3.org/2000/svg" width="29" height="20" xml:space="preserve"><g fill="#004D43"><path d="M11 4.3H5c-.4 0-.7.3-.7.7 0 .4.3.7.7.7h6c.5 0 .8-.3.8-.7 0-.4-.3-.7-.7-.7zM5 10h4.6c.4 0 .7-.4.7-.8s-.3-.7-.7-.7H5c-.4 0-.7.3-.7.7s.3.8.7.8zm6 2.7H5c-.4 0-.7.3-.7.7s.3.8.7.8h6c.5 0 .8-.4.8-.8s-.3-.7-.7-.7z"/><path d="M27.9 15 24.6 12c.4-.8.6-1.8.6-2.8 0-3.6-2.8-6.6-6.4-6.6-1 0-2 .3-2.8.7V.8c0-.4-.4-.8-.8-.8H1C.5 0 .2.4.2.8v16.9c0 .4.3.7.7.7h14.3c.4 0 .8-.3.8-.7V15a6.3 6.3 0 0 0 5.6 0l2.8 3.3c.4.6 1 1 1.8 1h.1c.7 0 1.3-.3 1.8-.8s.7-1.2.7-1.9-.4-1.3-.9-1.8zm-13.4 2H1.6V1.5h13v2.9a6.5 6.5 0 0 0 0 9.7V17zm-.8-7.7c0-2.8 2.3-5.1 5-5.1s5.1 2.3 5.1 5-2.3 5.1-5 5.1-5-2.3-5-5zm13.4 8.3a1 1 0 0 1-.9.3 1 1 0 0 1-.7-.4l-2.7-3.2 1-1L27 16c.2.2.4.5.4.8 0 .3-.1.6-.3.8z"/><path d="M22.6 9c-.1-.2-1.7-2.6-3.9-2.6-2.1 0-3.7 2.4-3.8 2.5v.7s1.7 2.5 3.8 2.5c2.2 0 3.8-2.4 3.9-2.5v-.7zm-3.8 1.9c-1 0-2-1-2.6-1.6.5-.7 1.5-1.7 2.6-1.7s2 1 2.5 1.7c-.5.6-1.5 1.6-2.5 1.6z"/><circle cx="18.8" cy="9.3" r="1"/></g></svg>